<?xml version="1.0" encoding="iso-8859-1"?>
<!-- Generator: Adobe Illustrator 25.0.1, SVG Export Plug-In . SVG Version: 6.00 Build 0)  -->
<svg version="1.1" xmlns="http://www.w3.org/2000/svg" xmlns:xlink="http://www.w3.org/1999/xlink" x="0px" y="0px"
	 viewBox="0 0 48 48" style="enable-background:new 0 0 48 48;" xml:space="preserve">
<g id="&#x421;&#x43B;&#x43E;&#x439;_1">
</g>
<g id="&#x421;&#x43B;&#x43E;&#x439;_2">
	<linearGradient id="SVGID_1_" gradientUnits="userSpaceOnUse" x1="23.0202" y1="4.3618" x2="25.0627" y2="18.0436">
		<stop  offset="0.042" style="stop-color:#076DB4"/>
		<stop  offset="0.85" style="stop-color:#0461AF"/>
	</linearGradient>
	<path style="fill:url(#SVGID_1_);" d="M42,14H6V8c0-1.105,0.895-2,2-2h32c1.105,0,2,0.895,2,2V14z"/>
	<linearGradient id="SVGID_2_" gradientUnits="userSpaceOnUse" x1="21.6349" y1="6.4172" x2="27.5675" y2="58.1925">
		<stop  offset="0" style="stop-color:#33BEF0"/>
		<stop  offset="1" style="stop-color:#0A85D9"/>
	</linearGradient>
	<path style="fill:url(#SVGID_2_);" d="M6,14v26c0,1.105,0.895,2,2,2h32c1.105,0,2-0.895,2-2V14H6z"/>
	<path style="fill:#FFFFFF;" d="M21,23h-2c-0.552,0-1-0.448-1-1v-2c0-0.552,0.448-1,1-1h2c0.552,0,1,0.448,1,1v2
		C22,22.552,21.552,23,21,23z"/>
	<path style="fill:#FFFFFF;" d="M29,23h-2c-0.552,0-1-0.448-1-1v-2c0-0.552,0.448-1,1-1h2c0.552,0,1,0.448,1,1v2
		C30,22.552,29.552,23,29,23z"/>
	<path style="fill:#FFFFFF;" d="M37,23h-2c-0.552,0-1-0.448-1-1v-2c0-0.552,0.448-1,1-1h2c0.552,0,1,0.448,1,1v2
		C38,22.552,37.552,23,37,23z"/>
	<path style="fill:#FFFFFF;" d="M21,30h-2c-0.552,0-1-0.448-1-1v-2c0-0.552,0.448-1,1-1h2c0.552,0,1,0.448,1,1v2
		C22,29.552,21.552,30,21,30z"/>
	<path style="fill:#FFFFFF;" d="M13,30h-2c-0.552,0-1-0.448-1-1v-2c0-0.552,0.448-1,1-1h2c0.552,0,1,0.448,1,1v2
		C14,29.552,13.552,30,13,30z"/>
	<path style="fill:#FFFFFF;" d="M29,30h-2c-0.552,0-1-0.448-1-1v-2c0-0.552,0.448-1,1-1h2c0.552,0,1,0.448,1,1v2
		C30,29.552,29.552,30,29,30z"/>
	<path style="fill:#FFFFFF;" d="M21,37h-2c-0.552,0-1-0.448-1-1v-2c0-0.552,0.448-1,1-1h2c0.552,0,1,0.448,1,1v2
		C22,36.552,21.552,37,21,37z"/>
	<path style="fill:#FFFFFF;" d="M13,37h-2c-0.552,0-1-0.448-1-1v-2c0-0.552,0.448-1,1-1h2c0.552,0,1,0.448,1,1v2
		C14,36.552,13.552,37,13,37z"/>
	<path style="fill:#FFFFFF;" d="M29,37h-2c-0.552,0-1-0.448-1-1v-2c0-0.552,0.448-1,1-1h2c0.552,0,1,0.448,1,1v2
		C30,36.552,29.552,37,29,37z"/>
	<path style="fill:#FFFFFF;" d="M37,30h-2c-0.552,0-1-0.448-1-1v-2c0-0.552,0.448-1,1-1h2c0.552,0,1,0.448,1,1v2
		C38,29.552,37.552,30,37,30z"/>
	<path style="opacity:0.05;" d="M14,6v3.5c0,0.276-0.225,0.5-0.5,0.5S13,9.776,13,9.5V6h-2v3.5c0,1.378,1.121,2.5,2.5,2.5
		S16,10.878,16,9.5V6H14z"/>
	<path style="opacity:0.07;" d="M14.5,6v3.5c0,0.551-0.448,1-1,1s-1-0.449-1-1V6h-1v3.5c0,1.103,0.897,2,2,2s2-0.897,2-2V6H14.5z"/>
	<path style="opacity:0.05;" d="M35,6v3.5c0,0.276-0.225,0.5-0.5,0.5S34,9.776,34,9.5V6h-2v3.5c0,1.378,1.121,2.5,2.5,2.5
		S37,10.878,37,9.5V6H35z"/>
	<path style="opacity:0.07;" d="M35.5,6v3.5c0,0.551-0.448,1-1,1s-1-0.449-1-1V6h-1v3.5c0,1.103,0.897,2,2,2s2-0.897,2-2V6H35.5z"/>
	<path style="fill:#54DAFF;" d="M34.5,11L34.5,11c-0.828,0-1.5-0.672-1.5-1.5v-5C33,3.672,33.672,3,34.5,3l0,0
		C35.328,3,36,3.672,36,4.5v5C36,10.328,35.328,11,34.5,11z"/>
	<path style="fill:#54DAFF;" d="M13.5,11L13.5,11c-0.828,0-1.5-0.672-1.5-1.5v-5C12,3.672,12.672,3,13.5,3h0
		C14.328,3,15,3.672,15,4.5v5C15,10.328,14.328,11,13.5,11z"/>
</g>
</svg>