<?xml version="1.0" encoding="utf-8"?><!DOCTYPE svg PUBLIC "-//W3C//DTD SVG 1.1//EN" "http://www.w3.org/Graphics/SVG/1.1/DTD/svg11.dtd"><svg version="1.1" xmlns="http://www.w3.org/2000/svg" xmlns:xlink="http://www.w3.org/1999/xlink" width="24" height="24" viewBox="0 0 24 24" data-tags="person_outline,perm_identity"><g fill="#444" transform="scale(0.0234375 0.0234375)"><path d="M512 554q64 0 140 18t139 60 63 94v128h-684v-128q0-52 63-94t139-60 140-18zM512 170q70 0 120 51t50 121-50 120-120 50-120-50-50-120 50-121 120-51zM512 636q-88 0-174 33t-86 57v46h520v-46q0-24-86-57t-174-33zM512 252q-38 0-64 26t-26 64 26 63 64 25 64-25 26-63-26-64-64-26z" /></g></svg>